<?xml version="1.0" standalone="no"?>
<!DOCTYPE svg PUBLIC "-//W3C//DTD SVG 20010904//EN"
 "http://www.w3.org/TR/2001/REC-SVG-20010904/DTD/svg10.dtd">
<svg version="1.0" xmlns="http://www.w3.org/2000/svg"
 width="700.000000pt" height="700.000000pt" viewBox="0 0 700.000000 700.000000"
 preserveAspectRatio="xMidYMid meet">
<metadata>
Created by potrace 1.14, written by Peter Selinger 2001-2017
</metadata>
<g transform="translate(0.000000,700.000000) scale(0.100000,-0.100000)"
fill="#000000" stroke="none">
<path d="M3289 6985 c-2 -1 -44 -6 -94 -10 -112 -9 -154 -14 -255 -31 -14 -2
-41 -7 -60 -10 -19 -3 -66 -12 -105 -21 -38 -8 -78 -16 -87 -18 -60 -13 -223
-61 -325 -96 -403 -139 -775 -350 -1108 -629 -87 -72 -302 -282 -376 -365
-290 -330 -533 -748 -679 -1170 -51 -147 -113 -386 -135 -520 -9 -55 -18 -111
-20 -125 -3 -14 -7 -52 -11 -85 -3 -33 -8 -71 -11 -85 -11 -55 -9 -539 2 -640
7 -58 16 -132 19 -165 4 -33 11 -78 16 -100 5 -22 11 -57 14 -77 17 -109 71
-312 126 -473 175 -506 454 -952 834 -1330 397 -395 841 -670 1362 -844 277
-92 510 -140 839 -171 84 -8 513 -5 580 3 17 3 57 7 90 11 62 7 125 15 160 22
11 2 34 7 50 9 464 82 919 265 1315 530 146 97 160 108 290 215 123 101 345
317 426 415 27 33 52 62 55 65 3 3 43 55 88 115 44 61 85 115 89 120 70 93
237 390 315 565 117 260 217 609 257 890 6 41 12 86 15 100 26 169 27 691 0
841 -2 13 -6 40 -9 59 -12 93 -40 240 -71 370 -19 84 -95 323 -124 395 -5 11
-23 56 -41 100 -54 130 -157 334 -230 453 -65 106 -70 113 -125 193 -27 39
-57 81 -65 93 -8 11 -19 26 -25 33 -5 7 -20 25 -32 40 -223 280 -503 542 -784
731 -437 293 -936 490 -1414 557 -22 3 -46 8 -53 10 -7 3 -47 7 -90 10 -42 4
-84 9 -92 12 -16 6 -515 14 -521 8z"/>
</g>
</svg>
